Coordinates
version=1
nRows=18
nColumns=63
inDegrees=yes

Units are S.I. units (second, meters, Newtons, ...)
If the header above contains a line with 'inDegrees', this indicates whether rotational values are in degrees (yes) or radians (no).

endheader
time	pelvis_tilt	pelvis_list	pelvis_rotation	pelvis_tx	pelvis_ty	pelvis_tz	hip_flexion_r	hip_adduction_r	hip_rotation_r	knee_angle_r	knee_angle_r_beta	ankle_angle_r	subtalar_angle_r	mtp_angle_r	hip_flexion_l	hip_adduction_l	hip_rotation_l	knee_angle_l	knee_angle_l_beta	ankle_angle_l	subtalar_angle_l	mtp_angle_l	L5_S1_Flex_Ext	L5_S1_Lat_Bending	L5_S1_axial_rotation	L4_L5_Flex_Ext	L4_L5_Lat_Bending	L4_L5_axial_rotation	L3_L4_Flex_Ext	L3_L4_Lat_Bending	L3_L4_axial_rotation	L2_L3_Flex_Ext	L2_L3_Lat_Bending	L2_L3_axial_rotation	L1_L2_Flex_Ext	L1_L2_Lat_Bending	L1_L2_axial_rotation	L1_T12_Flex_Ext	L1_T12_Lat_Bending	L1_T12_axial_rotation	Abs_r3	Abs_r2	Abs_r1	Abs_t1	Abs_t2	neck_flexion	neck_bending	neck_rotation	arm_flex_r	arm_add_r	arm_rot_r	elbow_flex_r	pro_sup_r	wrist_flex_r	wrist_dev_r	arm_flex_l	arm_add_l	arm_rot_l	elbow_flex_l	pro_sup_l	wrist_flex_l	wrist_dev_l
0.000000	8.188600	-4.579077	99.418397	0.303383	1.081727	0.343014	-3.451538	4.488057	-20.992848	7.250993	0.126554	39.745566	17.077388	0.000000	1.857758	-3.171846	-3.461536	14.949836	0.260924	42.139373	11.201390	0.000000	0.042867	0.291532	-1.493908	0.079607	0.387738	-1.587277	0.070425	0.708831	-1.587277	0.048992	0.708831	-1.307169	0.039806	0.594492	-1.213800	0.024494	0.451583	-1.120431	0.306191	3.297870	-8.308666	0.000000	0.000000	13.001484	0.282916	-1.271430	15.789086	-5.331053	71.677172	40.246336	21.339135	9.440888	7.306270	18.712652	-2.796338	74.351951	41.355112	37.793643	-4.098508	3.490206
0.016949	8.209826	-4.686547	99.739646	0.302872	1.080901	0.343133	-3.461610	4.508354	-21.136181	7.059526	0.123212	39.965779	17.135896	0.000000	2.073928	-3.093813	-2.554980	15.320465	0.267393	41.869605	10.547711	0.000000	0.048513	0.285824	-1.513214	0.090094	0.380146	-1.607790	0.079703	0.694953	-1.607790	0.055446	0.694953	-1.324062	0.045049	0.582852	-1.229486	0.027721	0.442741	-1.134911	0.346526	3.233299	-8.416043	0.000000	0.000000	13.269209	0.313744	-1.856583	15.390230	-5.506892	71.061503	40.787967	17.483427	8.035191	8.118726	19.006895	-2.695395	75.471450	41.229755	35.613166	-3.664818	3.335750
0.033898	8.200445	-4.794489	99.986940	0.302491	1.080231	0.343084	-3.465274	4.495101	-21.252733	6.907455	0.120558	40.136281	17.186495	0.000000	2.253681	-2.996996	-1.791058	15.592344	0.272138	41.661654	9.969852	0.000000	0.055991	0.277723	-1.526162	0.103981	0.369371	-1.621547	0.091988	0.675255	-1.621547	0.063992	0.675255	-1.335392	0.051993	0.566332	-1.240007	0.031993	0.430192	-1.144621	0.399940	3.141653	-8.488055	0.000000	0.000000	13.528713	0.282103	-2.375793	15.018906	-5.630364	70.499800	41.224213	14.206778	6.849715	8.839898	19.189729	-2.628932	76.209740	41.144827	34.384377	-3.328265	3.198576
0.050847	8.163885	-4.902979	100.165789	0.302224	1.079703	0.342894	-3.460867	4.450956	-21.345562	6.793584	0.118570	40.261910	17.230418	0.000000	2.401322	-2.882746	-1.152708	15.775619	0.275336	41.508164	9.455676	0.000000	0.064917	0.267588	-1.533322	0.120558	0.355892	-1.629155	0.106652	0.650613	-1.629155	0.074194	0.650613	-1.341657	0.060282	0.545665	-1.245824	0.037094	0.414493	-1.149992	0.463697	3.027005	-8.527878	0.000000	0.000000	13.779804	0.198377	-2.827503	14.676388	-5.707776	69.993652	41.564367	11.466097	5.869039	9.470808	19.272769	-2.593389	76.608219	41.096186	33.996167	-3.080639	3.075004
0.067797	8.103575	-5.012094	100.281702	0.302054	1.079304	0.342593	-3.446727	4.378578	-21.417728	6.716714	0.117229	40.347503	17.268899	0.000000	2.521157	-2.752417	-0.622870	15.880433	0.277166	41.401780	8.993045	0.000000	0.074908	0.255779	-1.535266	0.139111	0.340187	-1.631220	0.123066	0.621902	-1.631220	0.085612	0.621902	-1.343358	0.069559	0.521585	-1.247404	0.042802	0.396202	-1.151450	0.535060	2.893428	-8.538690	0.000000	0.000000	14.022285	0.072951	-3.210162	14.363950	-5.745433	69.544649	41.817727	9.218291	5.077742	10.012474	19.267631	-2.585207	76.708282	41.079689	34.337427	-2.913734	2.961352
0.084746	8.022945	-5.121909	100.340188	0.301964	1.079022	0.342208	-3.421190	4.280626	-21.472288	6.675650	0.116512	40.397897	17.303170	0.000000	2.617490	-2.607361	-0.184486	15.916930	0.277803	41.335147	8.569821	0.000000	0.085580	0.242658	-1.532565	0.158931	0.322735	-1.628350	0.140600	0.589999	-1.628350	0.097810	0.589999	-1.340994	0.079470	0.494828	-1.245209	0.048900	0.375877	-1.149424	0.611290	2.744997	-8.523665	0.000000	0.000000	14.255962	-0.083789	-3.522215	14.082866	-5.749642	69.154379	41.993587	7.420268	4.460400	10.465919	19.185927	-2.600826	76.551330	41.091196	35.297048	-2.819343	2.853936
0.101695	7.925423	-5.232500	100.346755	0.301939	1.078842	0.341769	-3.382595	4.159757	-21.512302	6.669192	0.116399	40.417929	17.334466	0.000000	2.694628	-2.448932	0.179506	15.895255	0.277425	41.300909	8.173867	0.000000	0.096551	0.228584	-1.525789	0.179304	0.304016	-1.621151	0.158623	0.555778	-1.621151	0.110348	0.555778	-1.335066	0.089657	0.466128	-1.239704	0.055169	0.354076	-1.144342	0.689652	2.585784	-8.485982	0.000000	0.000000	14.480642	-0.261457	-3.762109	13.834410	-5.726710	68.824434	42.101244	6.028935	4.001594	10.832161	19.039273	-2.636689	76.178758	41.126563	36.763921	-2.789258	2.749076
0.118644	7.814438	-5.343944	100.306914	0.301961	1.078753	0.341304	-3.329278	4.018630	-21.540827	6.696144	0.116870	40.412437	17.364019	0.000000	2.756875	-2.278482	0.486166	15.825550	0.276208	41.291713	7.793044	0.000000	0.107436	0.213916	-1.515511	0.199520	0.284508	-1.610230	0.176507	0.520116	-1.610230	0.122789	0.520116	-1.326072	0.099765	0.436218	-1.231352	0.061389	0.331356	-1.136633	0.767407	2.419862	-8.428816	0.000000	0.000000	14.696129	-0.449670	-3.928290	13.619857	-5.682942	68.556401	42.149994	5.001199	3.685901	11.112222	18.839283	-2.689234	75.631965	41.181648	38.626938	-2.815272	2.643088
0.135593	7.693419	-5.456317	100.226172	0.302014	1.078742	0.340841	-3.259578	3.859904	-21.560922	6.755309	0.117902	40.386256	17.393062	0.000000	2.808537	-2.097364	0.752553	15.717962	0.274330	41.300202	7.415215	0.000000	0.117854	0.199016	-1.502300	0.218866	0.264691	-1.596194	0.193622	0.483887	-1.596194	0.134695	0.483887	-1.314513	0.109439	0.405833	-1.220619	0.067342	0.308275	-1.126725	0.841818	2.251306	-8.355345	0.000000	0.000000	14.902229	-0.638040	-4.019204	13.440480	-5.624644	68.351871	42.149131	4.293968	3.497899	11.307123	18.597571	-2.754904	74.952348	41.252311	40.774990	-2.889178	2.532291
0.152542	7.565796	-5.569695	100.110040	0.302082	1.078794	0.340408	-3.171830	3.686237	-21.575646	6.845489	0.119476	40.344225	17.422830	0.000000	2.853919	-1.906931	0.995728	15.582633	0.271968	41.319021	7.028242	0.000000	0.127420	0.184242	-1.486730	0.236632	0.245042	-1.579650	0.209338	0.447967	-1.579650	0.145628	0.447967	-1.300888	0.118322	0.375707	-1.207968	0.072808	0.285392	-1.115047	0.910149	2.084187	-8.268744	0.000000	0.000000	15.098748	-0.816184	-4.033297	13.297555	-5.558123	68.212434	42.107953	3.864149	3.422168	11.417883	18.325753	-2.830138	74.181304	41.334407	43.096968	-3.002767	2.413003
0.169492	7.434996	-5.684153	99.964025	0.302148	1.078898	0.340035	-3.064373	3.500287	-21.588057	6.965486	0.121571	40.291180	17.454555	0.000000	2.897326	-1.708536	1.232751	15.429707	0.269299	41.340816	6.619989	0.000000	0.135752	0.169956	-1.469369	0.252105	0.226042	-1.561205	0.223027	0.413232	-1.561205	0.155151	0.413232	-1.285698	0.126059	0.346575	-1.193863	0.077569	0.263262	-1.102027	0.969662	1.922580	-8.172191	0.000000	0.000000	15.285491	-0.973715	-3.969016	13.192354	-5.489686	68.139678	42.035753	3.668650	3.443285	11.445522	18.035441	-2.911377	73.360232	41.423795	45.481763	-3.147833	2.281541
0.186441	7.331555	-5.792293	99.828754	0.302128	1.079071	0.339828	-2.944735	3.342064	-21.594614	7.066128	0.123327	40.227545	17.496370	0.000000	2.955830	-1.526860	1.528227	15.295580	0.266958	41.347387	6.142944	0.000000	0.141238	0.158753	-1.448190	0.262293	0.211141	-1.538702	0.232040	0.385992	-1.538702	0.161421	0.385992	-1.267166	0.131154	0.323729	-1.176654	0.080703	0.245908	-1.086142	1.008850	1.795844	-8.054398	0.000000	0.000000	15.408316	-1.078243	-3.876749	13.134456	-5.457161	68.159822	41.971576	3.457896	3.479378	11.482083	17.900895	-2.972964	73.019321	41.469324	47.129766	-3.221247	2.158709
0.203390	7.217251	-5.897804	99.663067	0.302068	1.079258	0.339762	-2.801808	3.154976	-21.601118	7.220507	0.126022	40.182691	17.533338	0.000000	3.010335	-1.322884	1.864211	15.164261	0.264666	41.338937	5.620865	0.000000	0.142433	0.147656	-1.426523	0.264512	0.196383	-1.515681	0.234003	0.359011	-1.515681	0.162787	0.359011	-1.248208	0.132263	0.301101	-1.159050	0.081386	0.228719	-1.069892	1.017385	1.670316	-7.933893	0.000000	0.000000	15.537379	-1.113335	-3.633853	13.137845	-5.442411	68.274914	41.888556	3.609629	3.662305	11.338751	17.734058	-3.038965	72.581262	41.518923	48.721446	-3.329032	1.992618
0.220339	7.101461	-6.024294	99.498638	0.301942	1.079405	0.339904	-2.601226	2.943108	-21.674238	7.439373	0.129842	40.168458	17.603011	0.000000	3.108302	-1.096360	2.327875	15.063712	0.262911	41.310540	4.991185	0.000000	0.142924	0.137303	-1.411748	0.265424	0.182613	-1.499983	0.234810	0.333839	-1.499983	0.163348	0.333839	-1.235280	0.132719	0.279989	-1.147046	0.081667	0.212683	-1.058811	1.020891	1.553202	-7.851721	0.000000	0.000000	15.673666	-1.084343	-3.249200	13.187125	-5.437006	68.462354	41.800579	3.902443	3.908244	11.063245	17.490230	-3.112317	71.940969	41.600574	50.185723	-3.482724	1.835259
0.237288	6.983897	-6.139820	99.311555	0.301786	1.079562	0.340219	-2.390960	2.715622	-21.756826	7.692524	0.134260	40.147322	17.668505	0.000000	3.198590	-0.854276	2.856610	14.975438	0.261371	41.239363	4.267507	0.000000	0.138628	0.127315	-1.394279	0.257446	0.169329	-1.481422	0.227752	0.309554	-1.481422	0.158438	0.309554	-1.219994	0.128730	0.259621	-1.132852	0.079212	0.197211	-1.045709	0.990207	1.440213	-7.754562	0.000000	0.000000	15.807364	-1.009960	-2.832973	13.286400	-5.450936	68.762183	41.734087	3.942622	4.165339	10.716690	17.263967	-3.199290	71.405888	41.698502	51.128125	-3.636559	1.630713
0.254237	6.867253	-6.253408	99.088618	0.301591	1.079694	0.340683	-2.159888	2.473466	-21.818209	7.978484	0.139251	40.128366	17.719229	0.000000	3.286923	-0.598278	3.439768	14.898782	0.260033	41.127455	3.448025	0.000000	0.131456	0.118875	-1.376354	0.244127	0.158104	-1.462376	0.215969	0.289032	-1.462376	0.150241	0.289032	-1.204310	0.122070	0.242410	-1.118288	0.075114	0.184137	-1.032266	0.938977	1.344737	-7.654869	0.000000	0.000000	15.947705	-0.869531	-2.303904	13.429213	-5.478067	69.165559	41.643031	4.282866	4.502506	10.159985	16.974250	-3.278367	70.757681	41.808016	52.048927	-3.844102	1.378740
0.271186	6.764795	-6.378995	98.864647	0.301326	1.079768	0.341336	-1.883042	2.227039	-21.932377	8.309913	0.145035	40.120436	17.793452	0.000000	3.411999	-0.343256	4.067064	14.867515	0.259487	40.984834	2.569192	0.000000	0.123690	0.112719	-1.362623	0.229704	0.149917	-1.447787	0.203210	0.274066	-1.447787	0.141365	0.274066	-1.192295	0.114858	0.229857	-1.107131	0.070676	0.174602	-1.021967	0.883502	1.275103	-7.578501	0.000000	0.000000	16.110895	-0.694051	-1.742239	13.586561	-5.516335	69.586725	41.576161	4.503289	4.758731	9.584516	16.660251	-3.337456	70.135151	41.906481	52.870731	-4.109824	1.020066
0.288136	6.680908	-6.516968	98.605216	0.301023	1.079791	0.342132	-1.562817	1.983573	-22.029274	8.673044	0.151373	40.109227	17.866772	0.000000	3.560053	-0.107499	4.600578	14.862700	0.259403	40.824197	1.747798	0.000000	0.115853	0.110121	-1.351063	0.215150	0.146462	-1.435504	0.190334	0.267749	-1.435504	0.132408	0.267749	-1.182180	0.107581	0.224560	-1.097738	0.066198	0.170578	-1.013297	0.827523	1.245716	-7.514205	0.000000	0.000000	16.289262	-0.473492	-1.067781	13.752540	-5.558712	70.008163	41.507810	4.832844	4.977421	8.963047	16.338592	-3.373004	69.593854	41.977123	53.587882	-4.441718	0.530624
